<svg xmlns="http://www.w3.org/2000/svg" width="290.5" height="96.676" viewBox="0 0 290.5 96.676"><path fill-rule="evenodd" clip-rule="evenodd" fill="#1063A3" d="M39.88 2.5h.072c3.24.216 6.624 3.528 14.328 10.008 24.48 20.448 22.176 13.608 22.176 35.64v36.648c0 .288.072.647.072.936 0 3.96-3.168 7.13-7.128 7.13H39.88V75.867c11.376-.072 22.752-7.057 20.808-20.736-.504-3.815-2.304-7.632-5.256-11.376-1.8-2.376-3.816-4.824-5.76-7.56-2.664-3.672-4.968-6.552-6.984-10.44l-.864-1.728-.792-1.8-.792-1.8-.288-.936-.072.144V2.5zM3.448 84.796V48.148c0-22.032-2.304-15.192 22.176-35.64C33.328 6.1 36.64 2.788 39.88 2.5v17.136l-.288.792-.792 1.8-.792 1.8-.792 1.728c-2.016 3.888-4.32 6.768-6.984 10.44-2.016 2.736-4.032 5.184-5.832 7.56-3.096 3.96-4.896 7.992-5.328 12.024-1.368 13.464 9.72 20.088 20.808 20.088V92.86H10.504c-3.96 0-7.128-3.17-7.128-7.13 0-.287 0-.646.072-.934z"/><path fill="#1063A3" d="M267.977 68.452v-8.93c.432.074.863.074 1.367.074 1.8 0 3.816-.288 4.68-.577V48.363c-2.23.072-4.32.216-6.047.576v-8.064c1.943-.216 3.96-.432 6.047-.504v-1.656c0-3.168-2.088-4.752-6.047-4.896v-9h.936c11.376 0 17.136 4.392 17.136 15.48v25.128c-3.17 1.656-9.648 3.024-16.273 3.024h-1.8zm0-43.632v9h-.648c-4.033 0-8.856 1.368-11.88 2.592l-3.097-8.568c3.527-1.368 9.43-2.88 15.624-3.024zm0 16.056v8.064c-3.672.648-6.05 2.016-6.05 5.4 0 3.024 2.305 4.896 6.05 5.184v8.93c-12.024-.434-17.93-5.258-17.93-13.825 0-9.218 7.92-12.53 17.93-13.754zM226 67.948V58.01c4.032-1.223 6.12-5.543 6.12-11.447 0-6.624-2.16-10.584-6.12-11.664V24.89c12.313.936 18.936 8.568 18.936 21.672 0 12.6-6.48 20.952-18.936 21.384zm0-43.056V34.9c-.647-.216-1.44-.288-2.305-.288-1.44 0-2.95.288-3.743.648v22.393c.72.36 2.376.647 3.816.647.792 0 1.584-.072 2.23-.288v9.937h-.79c-1.873 0-4.033-.36-5.257-.722v9.864h-12.815V27.844c3.384-1.656 9.576-3.024 16.345-3.024.864 0 1.728.072 2.52.072zm-80.136 43.56v-8.93c.432.074.936.074 1.44.074 1.728 0 3.743-.288 4.607-.577V48.363c-2.23.072-4.247.216-6.047.576v-8.064c1.944-.216 4.032-.432 6.048-.504v-1.656c0-3.168-2.087-4.752-6.047-4.896v-9h.936c11.447 0 17.135 4.392 17.135 15.48v25.128c-3.167 1.656-9.575 3.024-16.27 3.024h-1.8zm57.025-32.256V25.18h-34.634v11.016h10.73v31.32h13.175v-31.32h10.73zM123.83 65.572l-3.96-9.36c-1.296 1.01-3.312 1.513-5.544 1.513-4.464 0-7.92-4.248-7.92-11.232 0-7.056 3.096-11.232 7.92-11.232 2.232 0 4.248.505 5.544 1.513l3.96-9.072c-2.808-1.8-6.12-2.88-11.52-2.88-10.224 0-19.152 7.13-19.152 21.817 0 14.616 8.928 21.816 19.152 21.816 5.4 0 8.712-1.01 11.52-2.88zm22.032-40.752v9h-.504c-4.104 0-8.856 1.368-11.88 2.592l-3.168-8.568c3.6-1.368 9.432-2.88 15.552-3.024zm0 16.056v8.064c-3.6.648-5.976 2.016-5.976 5.4 0 3.024 2.304 4.896 5.976 5.184v8.93c-11.88-.434-17.856-5.258-17.856-13.825 0-9.218 7.92-12.53 17.856-13.754z"/><path d="M237.16 90.195v-2.088h1.872l-1.872-5.76v-2.592h1.008c.288 0 .432 0 .576.072s.216.072.288.145c.07.07.144.215.144.36l4.177 11.88c.07.287.144.503.144.647 0 .143 0 .215-.072.286-.07.073-.216.145-.432.145h-1.582c-.218 0-.36 0-.506-.07-.07 0-.144-.073-.215-.073 0-.07-.073-.144-.073-.216l-.864-2.735h-2.593zm0-10.44v2.593l-1.872 5.76h1.872v2.088h-2.52l-.865 2.593c0 .143 0 .215-.07.287-.073.07-.145.145-.217.145-.072.07-.216.07-.432.07h-1.44c-.217 0-.36-.07-.434-.144-.072-.07-.072-.216-.072-.36.072-.144.072-.287.217-.575l4.104-11.952c.073-.07.073-.215.146-.286.07-.072.144-.072.288-.145s.288-.073.504-.073h.792zM212.104 93.51V91.42c.433 0 .72-.072 1.008-.216.29-.144.577-.36.72-.647.217-.288.36-.576.434-.937.07-.433.144-.864.144-1.368 0-.432-.072-.863-.144-1.225-.073-.43-.145-.72-.36-1.008-.145-.29-.36-.505-.648-.648-.288-.216-.648-.288-1.152-.288v-2.016h.145c.793 0 1.513.07 2.16.288.577.216 1.08.575 1.513 1.008.36.432.648 1.008.864 1.584.216.648.288 1.368.288 2.232 0 .792-.072 1.51-.288 2.16s-.505 1.224-.937 1.655c-.432.504-.936.864-1.583 1.08-.65.29-1.37.433-2.163.433zm13.824-9.072v.576c0 .145-.07.288-.07.36-.073.07-.073.144-.146.144-.072.072-.072.072-.144.072h-2.377v7.344c0 .072 0 .072-.07.145 0 .07-.072.145-.217.145-.07 0-.215.07-.36.07h-1.294c-.146 0-.29-.07-.36-.07-.145 0-.217-.073-.217-.145-.072-.072-.072-.072-.072-.145v-7.344h-2.303c-.072 0-.144 0-.216-.072-.07 0-.07-.072-.144-.144 0-.145 0-.216-.07-.433v-.576-.504c.07-.145.07-.217.143-.36 0-.072.07-.144.07-.144.073-.072.145-.072.217-.072h7.272c.07 0 .07 0 .143.072.072 0 .072.07.145.144 0 .144.07.216.07.36v.576zm-13.824-1.368v2.016c-.36 0-.72.072-1.008.216-.287.144-.504.36-.72.648-.145.287-.288.575-.433 1.008-.07.36-.144.792-.144 1.296 0 .433.07.864.143 1.225.072.432.217.72.36 1.008.216.287.432.504.72.72.29.144.648.216 1.08.216v2.09h-.07c-.865 0-1.585-.145-2.16-.36-.65-.217-1.153-.576-1.513-1.01-.433-.43-.72-.935-.937-1.582-.216-.648-.288-1.37-.288-2.232 0-.72.144-1.513.36-2.16.144-.648.504-1.152.936-1.656.434-.432.938-.792 1.585-1.08.577-.218 1.298-.362 2.09-.362zm-16.056 10.368v-1.8c.288-.07.504-.144.72-.288.29-.144.648-.432.937-.79v-1.585H196.05v-1.656h1.655v-.577c0-.288 0-.505-.072-.72-.07-.216-.144-.433-.288-.577-.144-.144-.287-.216-.575-.287-.145-.072-.433-.145-.72-.145V83.07h.143c.72 0 1.37.07 1.873.216.504.144.936.36 1.296.647.287.29.575.65.72 1.08.144.505.216 1.08.216 1.657v6.264c0 .073 0 .146-.072.217-.07.073-.216.145-.36.145H198.5s-.218-.07-.29-.145c-.07-.07-.07-.144-.07-.216v-.72c-.36.433-.793.72-1.297.937-.29.145-.507.217-.795.29zm0-10.368v1.943h-.07c-.434 0-.866.073-1.153.146-.36.07-.648.216-.936.36-.29.07-.506.215-.65.288-.216.07-.36.144-.43.144-.074 0-.146 0-.218-.072-.072-.07-.072-.145-.144-.216 0-.072-.072-.217-.072-.288 0-.145-.07-.288-.07-.433 0-.216.07-.433.07-.576.072-.072.144-.217.216-.288.072-.145.288-.216.504-.36.217-.072.504-.216.864-.288.288-.144.647-.216 1.08-.288.288-.072.648-.072 1.008-.072zm0 4.248v1.656c-.145 0-.288.07-.432.07-.288.073-.505.145-.72.29-.145.144-.29.287-.36.432-.144.216-.144.43-.144.647 0 .36.144.65.36.865.215.288.575.36 1.007.36h.287v1.8c-.288 0-.575.07-.864.07-.503 0-.936-.07-1.368-.215-.36-.145-.72-.288-1.007-.576-.36-.216-.577-.576-.72-.936-.217-.36-.29-.792-.29-1.296 0-.576.145-1.008.36-1.44.217-.36.505-.72.937-.937.432-.287.937-.504 1.585-.575.36-.14.864-.14 1.368-.214zm-53.568 6.192v-2.016h.576c.432 0 .864 0 1.224-.072.288-.072.648-.144.864-.216.288-.072.432-.144.576-.216.145-.072.288-.145.36-.145s.144.072.216.072c0 0 .072.072.072.145 0 .07.07.144.07.216v.864c0 .072 0 .217-.07.288v.145c-.072.07-.072.144-.145.144-.07.072-.144.145-.36.216-.216.072-.36.145-.72.29-.287.07-.647.143-1.08.214-.36 0-.79.072-1.223.072-.144-.002-.288-.002-.36-.002zm0-4.535v-1.73h1.944c0-.72-.144-1.295-.432-1.728-.288-.432-.792-.647-1.44-.647h-.072v-1.8h.072c.792 0 1.44.07 2.016.288.576.287 1.008.575 1.296 1.008.36.36.575.863.792 1.44.144.504.216 1.15.216 1.8v.432c0 .288-.072.504-.216.648-.145.144-.288.288-.576.288h-3.6zm14.472 3.743c.07.145.07.216.07.288s-.07.144-.143.217c-.072 0-.29.072-.433.072h-1.584c-.217 0-.36 0-.433-.07-.144 0-.216-.074-.216-.074-.072-.07-.144-.144-.144-.216l-1.73-3.24-1.727 3.24c0 .072-.072.145-.072.216-.07 0-.143.073-.215.073-.145.072-.288.072-.432.072h-1.44c-.217 0-.36-.07-.434-.07-.072-.074-.145-.146-.145-.218s.072-.144.144-.288l2.52-4.535-2.376-4.32c0-.144-.072-.216-.072-.287 0-.145.072-.145.145-.216.072-.072.216-.072.432-.145h1.51c.218 0 .36.072.434.072.144 0 .216.072.287.072 0 .07.074.144.074.216l1.655 3.096 1.655-3.096c0-.072.072-.145.072-.145.07-.07.144-.144.216-.144.07 0 .216-.072.36-.072h1.367c.216 0 .288.073.432.146.073 0 .073.07.073.144 0 .144 0 .216-.145.36l-2.232 4.247 2.524 4.61zm10.73.216c0 .072-.074.072-.074.145-.07.07-.144.145-.215.145-.073 0-.217.07-.433.07h-1.224c-.216 0-.36-.07-.43-.07-.074 0-.146-.073-.218-.145 0-.072-.072-.072-.072-.145V89.26h-3.743v3.672c0 .072 0 .072-.072.145 0 .07-.07.145-.215.145-.072 0-.216.07-.36.07h-1.295c-.145 0-.288-.07-.36-.07-.144 0-.216-.073-.216-.145-.07-.072-.07-.072-.07-.145v-9.288c0-.07 0-.144.07-.216 0-.07.072-.07.216-.144.072 0 .216 0 .36-.072h1.295c.145.072.288.072.36.072.144.072.216.072.216.144.073.072.073.145.073.216V87.1h3.743v-3.456c0-.07.072-.144.072-.216.072-.07.144-.07.217-.144.07 0 .215 0 .43-.072h1.225c.216.072.36.072.433.072.07.072.144.072.215.144 0 .072.073.145.073.216v9.288zm11.806 0v.216c-.072 0-.145.073-.216.073-.145.072-.216.072-.433.072h-1.224s-.288 0-.433-.07c-.072 0-.144-.074-.216-.074-.07-.07-.07-.144-.07-.216v-4.104-.936c.07-.29.07-.648.143-.937-.216.288-.36.576-.576.864-.216.286-.36.575-.575.863l-3.17 4.247c-.072.072-.072.145-.144.216-.072 0-.145.073-.216.073-.072.07-.217.07-.36.07h-1.08s-.288 0-.36-.07c-.144 0-.216-.074-.216-.146-.07 0-.07-.072-.07-.145v-9.29c0-.07 0-.143.07-.215 0-.07.072-.07.217-.144.072 0 .216 0 .36-.07h.648c.504 0 .792 0 1.008.07s.288.217.288.36V88.607c0 .29-.072.576-.072.865.144-.217.36-.504.504-.792s.36-.577.576-.792l3.168-4.25c0-.07.07-.143.144-.215.072-.07.145-.07.217-.144.145 0 .217-.073.36-.073H178.912c.145 0 .288.072.36.072.07.07.144.07.216.143v9.508zm11.376.072c0 .072-.072.144-.072.144-.072.073-.145.073-.216.073-.072.072-.216.072-.36.072h-1.369c-.216 0-.36 0-.432-.07-.144 0-.216 0-.288-.074 0-.07-.07-.144-.07-.216l-.866-2.16c-.144-.36-.215-.576-.36-.79-.143-.217-.287-.36-.43-.505-.146-.072-.29-.145-.505-.217-.145-.072-.36-.072-.577-.072h-.575v3.744c0 .072 0 .145-.072.145-.072.07-.145.145-.216.145-.072 0-.216.07-.433.07H182.8c-.143 0-.287-.07-.36-.07-.143 0-.215-.073-.215-.145-.07 0-.07-.072-.07-.145v-9.36c0-.07 0-.07.07-.144 0-.07.072-.07.216-.144.073 0 .218 0 .36-.072h1.224c.217.072.36.072.433.072.07.072.144.072.216.144.072.072.072.072.072.145v3.6h.504c.215 0 .432 0 .647-.072.144-.07.287-.143.432-.287.144-.07.287-.288.43-.432.073-.215.218-.503.29-.79l.79-2.017.146-.145c0-.07.072-.07.216-.144.072 0 .216-.072.432-.072H189.93c.144 0 .287.072.36.072.143 0 .215.072.215.072.072.07.072.144.072.144 0 .072 0 .216-.072.288 0 .072-.072.216-.144.36l-.72 1.8c-.144.36-.287.648-.432.863-.216.29-.36.506-.504.65-.216.143-.36.287-.576.36-.144.143-.288.215-.433.215v.07c.217.074.36.146.577.29.216.07.36.215.503.36.217.216.36.43.504.647.144.216.288.576.504.864l.863 2.088c.072.144.072.216.072.287.07 0 .07.073.07.146s.073.072.073.144v.074zm-48.384-9.936v1.8c-.288 0-.576.07-.792.216-.288.144-.504.288-.648.504-.144.217-.288.432-.36.72-.072.29-.144.648-.144.937h1.944v1.73h-1.944c0 .358 0 .718.144 1.007.072.36.216.647.432.863.216.217.432.36.792.504.144.07.36.07.576.144v2.016c-.72-.072-1.296-.144-1.872-.36-.576-.144-1.08-.504-1.512-.936-.432-.432-.72-.936-.936-1.584-.216-.647-.288-1.368-.288-2.23 0-.865.072-1.586.288-2.233.216-.648.504-1.225.936-1.73.432-.43.936-.79 1.512-1.007.576-.29 1.152-.362 1.872-.362zm-30.744 10.368v-1.8c.288-.07.504-.144.792-.288.288-.144.576-.432.936-.79v-1.585h-1.728v-1.656H113.464v-.577c0-.288-.072-.505-.144-.72 0-.216-.144-.433-.288-.577-.072-.144-.288-.216-.504-.287-.216-.072-.432-.145-.792-.145V83.07h.216c.72 0 1.296.07 1.872.216.504.144.936.36 1.224.647.36.29.576.65.72 1.08.144.505.216 1.08.216 1.657v6.264c0 .073 0 .146-.072.217-.072.073-.144.145-.36.145h-1.296s-.288-.07-.288-.145c-.072-.07-.144-.144-.144-.216v-.72c-.36.433-.792.72-1.296.937-.216.145-.504.217-.792.29zm15.912-.504c0 .072-.072.072-.072.145-.072.07-.144.145-.216.145-.144 0-.216.07-.432.07h-1.224c-.216 0-.36-.07-.432-.07s-.144-.073-.216-.145c-.072-.072-.072-.072-.072-.145V89.26h-3.744v3.672c0 .072 0 .072-.072.145 0 .07-.072.145-.216.145-.072 0-.216.07-.36.07h-1.296s-.288-.07-.36-.07c-.144 0-.216-.073-.216-.145-.072-.072-.072-.072-.072-.145v-9.288c0-.07 0-.144.072-.216 0-.07.072-.07.216-.144.072 0 .216 0 .36-.072h1.296c.144.072.288.072.36.072.144.072.216.072.216.144.072.072.072.145.072.216V87.1h3.744v-3.456c0-.07 0-.144.072-.216.072-.07.144-.07.216-.144.072 0 .216 0 .432-.072h1.224c.216.072.288.072.432.072.072.072.144.072.216.144 0 .072.072.145.072.216v9.288zm9.504-8.496c0 .217-.072.433-.072.576 0 .145 0 .288-.072.36 0 .07-.072.144-.144.144 0 .072-.072.072-.144.072h-2.376v7.344c0 .072 0 .072-.072.145 0 .07-.072.145-.144.145-.144 0-.288.07-.432.07h-1.224c-.216 0-.36-.07-.432-.07-.072 0-.144-.073-.216-.145 0-.072-.072-.072-.072-.145v-7.344h-2.304c-.072 0-.144 0-.216-.072 0 0-.072-.072-.072-.144-.072-.145-.072-.216-.144-.433v-.576c0-.144 0-.36.072-.504 0-.145 0-.217.072-.36 0-.072.072-.144.072-.144.072-.072.144-.072.216-.072h7.272c.072 0 .144 0 .144.072.072 0 .144.07.144.144.072.144.072.216.072.36s.072.36.072.576zm-30.816 6.768c0 .216-.072.36-.072.432v.36c-.072.072-.072.144-.144.216 0 .072-.072.145-.144.216-.072.072-.216.145-.432.288-.216.145-.504.216-.792.36s-.648.216-1.08.288c-.432.07-.864.144-1.296.144-.936 0-1.8-.144-2.52-.432s-1.368-.72-1.872-1.296-.936-1.296-1.224-2.09c-.288-.862-.432-1.87-.432-2.95 0-1.152.216-2.16.504-3.097.288-.863.72-1.583 1.224-2.23.576-.577 1.224-1.01 2.016-1.37.72-.287 1.584-.432 2.52-.432.36 0 .72 0 1.08.074.36.07.648.144.936.216.288.144.576.216.792.36.288.144.432.287.504.36.144.07.144.144.216.215 0 .072.072.145.072.288 0 .07.072.145.072.288v1.009c-.072.144-.072.287-.072.36-.072.143-.072.143-.144.215-.072.072-.144.072-.144.072-.144 0-.288-.072-.432-.216-.144-.07-.36-.216-.576-.36-.288-.144-.576-.287-.936-.43-.36-.146-.792-.146-1.224-.146-.576 0-1.008.072-1.44.288s-.792.576-1.08.936c-.288.433-.504.937-.648 1.513-.144.576-.216 1.225-.216 1.945s.072 1.44.216 2.015c.144.576.36 1.08.72 1.44.288.36.648.648 1.08.792.432.217.864.288 1.44.288.432 0 .864-.07 1.224-.144.36-.145.648-.217.936-.36.216-.144.432-.288.576-.36.216-.144.288-.216.432-.216.072 0 .072 0 .144.072 0 0 .072.07.072.145.072.07.072.216.072.36s.072.36.072.577zm5.4-8.136v1.943h-.072c-.432 0-.792.073-1.152.146-.36.07-.648.216-.936.36-.216.07-.432.215-.648.288-.144.07-.288.144-.432.144-.072 0-.144 0-.144-.072-.072-.07-.144-.145-.144-.216-.072-.072-.072-.217-.144-.288v-.433c0-.216 0-.433.072-.576 0-.072.072-.217.144-.288.144-.145.288-.216.504-.36.288-.072.576-.216.864-.288.36-.144.72-.216 1.08-.288.36-.072.72-.072 1.008-.072zm0 4.248v1.656c-.144 0-.216.07-.36.07-.288.073-.576.145-.72.29-.216.144-.36.287-.432.432-.072.216-.144.43-.144.647 0 .36.144.65.36.865.288.288.648.36 1.08.36h.216v1.8c-.216 0-.504.07-.792.07-.504 0-.936-.07-1.368-.215-.432-.145-.792-.288-1.08-.576-.288-.216-.504-.576-.72-.936-.144-.36-.216-.792-.216-1.296 0-.576.072-1.008.288-1.44.216-.36.504-.72.936-.937.432-.287.936-.504 1.584-.575.432-.14.864-.14 1.368-.214zM283.096 88.036v-2.23h1.944v-3.89h-1.944v-2.088H286.985c.216 0 .432.072.576.145.145.144.216.36.216.72v12.24c0 .07 0 .07-.07.144 0 .07-.073.145-.217.145-.073 0-.217.07-.433.07h-1.298s-.286-.07-.43-.07c-.073 0-.146-.073-.218-.145-.07-.072-.07-.072-.07-.145v-5.04h-1.01c-.432 0-.72 0-.936.072v.072zm0-8.208v2.088c-.36 0-.576.072-.79.145-.29.072-.506.217-.722.36-.145.216-.288.36-.36.648-.144.216-.144.504-.144.792 0 .287.072.504.144.792.072.216.216.432.433.575.144.216.432.36.72.433.144.07.36.07.72.145v2.23c-.216.072-.432.217-.576.36-.214.145-.358.36-.503.648-.072.216-.216.576-.36.937l-1.008 2.88c-.072.07-.072.144-.145.216-.072.07-.144.145-.216.145-.146.072-.29.072-.505.072h-1.44c-.217 0-.36-.07-.433-.07-.072-.074-.144-.074-.217-.146v-.145-.287c.073-.07.073-.216.145-.432l1.008-2.663c.145-.36.288-.647.432-.863.145-.288.29-.504.433-.72.216-.217.36-.36.576-.505s.43-.29.646-.36c-.432-.073-.863-.217-1.15-.433-.36-.216-.65-.433-.865-.72-.215-.288-.358-.576-.503-.937-.072-.36-.144-.72-.144-1.224 0-.576.07-1.152.288-1.656.216-.504.576-.863.937-1.224.432-.36.936-.648 1.584-.792.504-.214 1.15-.286 2.016-.286zm-16.632 13.68V91.42c.433 0 .72-.072 1.01-.216.286-.144.574-.36.718-.647.217-.288.36-.576.433-.937.07-.433.145-.864.145-1.368 0-.432 0-.863-.073-1.225-.144-.43-.215-.72-.43-1.008-.146-.29-.362-.505-.65-.648-.287-.216-.647-.288-1.08-.288h-.07v-2.016h.143c.793 0 1.513.07 2.16.288.576.216 1.08.575 1.512 1.008.36.432.72 1.008.864 1.584.217.648.288 1.368.288 2.232 0 .792-.07 1.51-.288 2.16-.216.647-.504 1.224-.936 1.655-.433.504-.936.864-1.584 1.08-.65.29-1.37.433-2.162.433zM254.44 83.284h3.888c.288 0 .432.072.575.216.145.144.145.36.145.647v6.984h1.08c.216 0 .36 0 .433.073.072.072.072.216.072.432V96.46c-.07.072-.144.072-.216.072-.072.07-.216.07-.36.144H258.98c-.145-.072-.288-.072-.36-.144-.072 0-.144 0-.216-.072v-3.168h-3.96v-2.16h2.017v-5.76h-2.017v-2.088zm12.024-.216v2.016c-.36 0-.72.072-1.008.216s-.504.36-.72.648c-.145.287-.288.575-.432 1.008-.073.36-.145.792-.145 1.296 0 .433.07.864.144 1.225.07.432.215.72.36 1.008.215.287.43.504.72.72.287.144.647.216 1.08.216v2.09h-.072c-.865 0-1.585-.145-2.16-.36-.648-.217-1.152-.576-1.513-1.01-.433-.43-.72-.935-.937-1.582-.145-.648-.288-1.37-.288-2.232 0-.72.144-1.513.36-2.16.216-.648.504-1.152.936-1.656.433-.432.938-.792 1.585-1.08.577-.218 1.297-.362 2.09-.362zm-15.407 13.248v.144c-.072.072-.145.072-.217.072-.07.07-.216.07-.36.144h-1.079c-.144-.072-.216-.072-.36-.144-.07 0-.143 0-.143-.072-.072-.07-.072-.07-.072-.144v-4.68c0-.217.072-.36.144-.433.07-.072.143-.072.36-.072h.503c.216-.287.433-.646.648-1.007.216-.36.36-.792.505-1.368.216-.575.36-1.224.504-1.944.143-.79.286-1.654.358-2.734.072-.145.072-.216.072-.36.072-.072.072-.144.145-.216.07-.072.144-.144.215-.144.073-.072.217-.072.36-.072h1.8v2.088h-.216c-.144.863-.216 1.584-.36 2.23-.144.65-.287 1.153-.432 1.657-.216.43-.36.79-.504 1.08-.216.287-.36.575-.504.79h2.016v2.16h-3.383v3.026z"/></svg>