<svg
   xmlns:dc="http://purl.org/dc/elements/1.1/"
   xmlns:cc="http://creativecommons.org/ns#"
   xmlns:rdf="http://www.w3.org/1999/02/22-rdf-syntax-ns#"
   xmlns:svg="http://www.w3.org/2000/svg"
   xmlns="http://www.w3.org/2000/svg"
   xmlns:sodipodi="http://sodipodi.sourceforge.net/DTD/sodipodi-0.dtd"
   xmlns:inkscape="http://www.inkscape.org/namespaces/inkscape"
   width="261.05984"
   height="65.624176"
   viewBox="0 0 261.05984 65.624174"
   version="1.1"
   id="svg3733"
   sodipodi:docname="logo-small.svg"
   inkscape:version="0.92.4 (5da689c313, 2019-01-14)">
  <metadata
     id="metadata3739">
    <rdf:RDF>
      <cc:Work
         rdf:about="">
        <dc:format>image/svg+xml</dc:format>
        <dc:type
           rdf:resource="http://purl.org/dc/dcmitype/StillImage" />
        <dc:title></dc:title>
      </cc:Work>
    </rdf:RDF>
  </metadata>
  <defs
     id="defs3737" />
  <sodipodi:namedview
     pagecolor="#ffffff"
     bordercolor="#666666"
     borderopacity="1"
     objecttolerance="10"
     gridtolerance="10"
     guidetolerance="10"
     inkscape:pageopacity="0"
     inkscape:pageshadow="2"
     inkscape:window-width="1366"
     inkscape:window-height="705"
     id="namedview3735"
     showgrid="false"
     inkscape:zoom="2.9476981"
     inkscape:cx="148.06188"
     inkscape:cy="33.876795"
     inkscape:window-x="-8"
     inkscape:window-y="-8"
     inkscape:window-maximized="1"
     inkscape:current-layer="svg3733" />
  <path
     d="m 28.454966,0 0.055,5.29e-4 c 2.473239,0.18014 5.03516,2.60233 10.874913,7.349351 18.557204,14.980735 16.844473,10.012788 16.692841,25.960307 l -0.252223,26.52708 c -0.002,0.208466 0.05055,0.468852 0.04856,0.678038 -0.02725,2.866386 -2.468804,5.137676 -5.49347,5.108596 L 27.833065,65.40712 27.95003,53.105554 c 8.689535,0.03142 17.426649,-4.941019 16.035956,-14.856623 -0.3587,-2.765132 -1.707279,-5.541226 -3.936263,-8.27294 -1.358495,-1.733047 -2.881476,-3.5198 -4.347483,-5.514485 -2.009503,-2.677483 -3.749487,-4.779046 -5.26256,-7.608118 l -0.648033,-1.257131 -0.592545,-1.308718 -0.592546,-1.308718 -0.213533,-0.679624 -0.05599,0.103711 z M 0.06165103,59.301133 0.31387403,32.774052 C 0.46550703,16.826533 -1.341373,21.760641 17.497292,7.139445 23.425742,2.557688 25.978259,0.184671 28.454966,0 l -0.117936,12.403626 -0.225427,0.571161 -0.617321,1.297086 -0.61732,1.297085 -0.616826,1.244969 c -1.566589,2.799464 -3.346215,4.867188 -5.406263,7.505545 -1.558659,1.965606 -3.115338,3.722747 -4.506538,5.42936 -2.391993,2.843648 -3.794592,5.748931 -4.152305,8.664258 -1.137547,9.73566 7.28593,14.611764 15.754993,14.693189 L 27.833078,65.405672 5.395558,65.18995 C 2.370891,65.16087 -0.02702397,62.843049 2.3002998e-4,59.976665 c 0.002,-0.207739 0.0045,-0.467596 0.06142,-0.675532 z"
     id="path3727"
     inkscape:connector-curvature="0"
     style="clip-rule:evenodd;fill: #fff;fill-rule:evenodd;stroke-width:0.74358487" />
  <path style="fill: #fff;"
     d="m 242.98784,56.59556 v -8.93 c 0.432,0.074 0.863,0.074 1.367,0.074 1.8,0 3.816,-0.288 4.68,-0.577 v -10.656 c -2.23,0.072 -4.32,0.216 -6.047,0.576 v -8.064 c 1.943,-0.216 3.96,-0.432 6.047,-0.504 v -1.656 c 0,-3.168 -2.088,-4.752 -6.047,-4.896 v -9 h 0.936 c 11.376,0 17.136,4.392 17.136,15.48 v 25.128 c -3.17,1.656 -9.648,3.024 -16.273,3.024 h -1.8 z m 0,-43.632 v 9 h -0.648 c -4.033,0 -8.856,1.368 -11.88,2.592 l -3.097,-8.568 c 3.527,-1.368 9.43,-2.88 15.624,-3.024 z m 0,16.056 v 8.064 c -3.672,0.648 -6.05,2.016 -6.05,5.4 0,3.024 2.305,4.896 6.05,5.184 v 8.93 c -12.024,-0.434 -17.93,-5.258 -17.93,-13.825 0,-9.218 7.92,-12.53 17.93,-13.754 z m -41.977,27.072 v -9.938 c 4.032,-1.223 6.12,-5.543 6.12,-11.447 0,-6.624 -2.16,-10.584 -6.12,-11.664 v -10.009 c 12.313,0.936 18.936,8.568 18.936,21.672 0,12.6 -6.48,20.952 -18.936,21.384 z m 0,-43.056 v 10.008 c -0.647,-0.216 -1.44,-0.288 -2.305,-0.288 -1.44,0 -2.95,0.288 -3.743,0.648 v 22.393 c 0.72,0.36 2.376,0.647 3.816,0.647 0.792,0 1.584,-0.072 2.23,-0.288 v 9.937 h -0.79 c -1.873,0 -4.033,-0.36 -5.257,-0.722 v 9.864 h -12.815 v -49.247 c 3.384,-1.656 9.576,-3.024 16.345,-3.024 0.864,0 1.728,0.072 2.52,0.072 z m -80.136,43.56 v -8.93 c 0.432,0.074 0.936,0.074 1.44,0.074 1.728,0 3.743,-0.288 4.607,-0.577 v -10.656 c -2.23,0.072 -4.247,0.216 -6.047,0.576 v -8.064 c 1.944,-0.216 4.032,-0.432 6.048,-0.504 v -1.656 c 0,-3.168 -2.087,-4.752 -6.047,-4.896 v -9 h 0.936 c 11.447,0 17.135,4.392 17.135,15.48 v 25.128 c -3.167,1.656 -9.575,3.024 -16.27,3.024 h -1.8 z m 57.025,-32.256 v -11.016 h -34.634 v 11.016 h 10.73 v 31.32 h 13.175 v -31.32 h 10.73 z m -79.058999,29.376 -3.96,-9.36 c -1.296,1.01 -3.312,1.513 -5.544,1.513 -4.464,0 -7.92,-4.248 -7.92,-11.232 0,-7.056 3.096,-11.232 7.92,-11.232 2.232,0 4.248,0.505 5.544,1.513 l 3.96,-9.072 c -2.808,-1.8 -6.12,-2.88 -11.52,-2.88 -10.224,0 -19.152,7.13 -19.152,21.817 0,14.616 8.928,21.816 19.152,21.816 5.4,0 8.712,-1.01 11.52,-2.88 z m 22.031999,-40.752 v 9 h -0.504 c -4.104,0 -8.856,1.368 -11.88,2.592 l -3.168,-8.568 c 3.6,-1.368 9.432,-2.88 15.552,-3.024 z m 0,16.056 v 8.064 c -3.6,0.648 -5.976,2.016 -5.976,5.4 0,3.024 2.304,4.896 5.976,5.184 v 8.93 c -11.88,-0.434 -17.856,-5.258 -17.856,-13.825 0,-9.218 7.92,-12.53 17.856,-13.754 z"
     id="path3729"
     inkscape:connector-curvature="0" />
</svg>
